<svg width="331" height="302" viewBox="0 0 331 302" fill="none" xmlns="http://www.w3.org/2000/svg">
<rect width="331" height="302" fill="#F5F5F5"/>
<g id="Nsbe Logo Vector 1">
<g id="Group">
<path id="Vector" d="M117.939 200.765C118.004 200.202 118.714 200.443 119.005 200.122C121.168 199.72 123.041 198.915 124.365 197.36C125.075 196.609 124.656 195.751 124.753 194.947C124.785 194.679 124.365 194.786 124.204 194.625C124.43 194.304 124.204 193.955 124.333 193.606C124.559 191.837 124.43 190.067 124.398 188.298C124.365 187.896 124.527 187.521 124.72 187.145C124.72 184.383 124.753 181.622 124.753 178.86C124.753 168.001 124.753 157.143 124.753 146.284C124.753 145.936 124.882 145.587 124.591 145.265C124.527 144.917 124.365 144.568 124.43 144.192C124.494 143.227 124.43 142.262 124.494 141.323C124.527 140.68 124.333 140.197 123.558 139.956C123.397 139.742 123.558 139.634 123.752 139.607C124.139 139.554 124.139 139.286 124.204 139.071C123.041 137.758 121.815 136.497 120.2 135.559C119.554 134.701 118.489 134.165 117.778 133.334C117.197 132.852 116.745 132.261 116.131 131.832C115.033 131.055 114.807 130.09 114.937 128.99C115.033 128.105 115.195 127.891 116.293 127.891C118.295 127.864 120.329 127.891 122.331 127.891C122.751 127.891 123.17 127.918 123.591 127.784C124.107 127.703 124.624 127.784 125.076 127.998C127.627 128.186 130.178 128.186 132.697 128.052C135.538 127.891 137.766 128.561 139.962 130.116C145.032 133.682 150.327 137.007 155.526 140.412C155.493 140.653 155.3 140.653 155.138 140.706C153.782 141.35 153.491 142.53 154.525 143.522C157.14 146.069 159.368 148.857 161.468 151.726C161.952 152.396 162.566 152.906 163.566 152.826C164.632 152.745 165.246 152.155 165.439 151.351C165.568 150.788 165.891 150.842 166.375 150.949C168.442 151.378 170.508 151.753 172.607 151.968C173.35 152.048 173.738 152.584 174.383 152.718C174.771 152.692 174.964 152.96 175.223 153.12C175.416 153.308 175.642 153.469 175.642 153.737C171.929 153.79 168.215 153.871 164.534 153.924C161.758 153.951 158.948 154.005 156.171 153.978C155.526 153.978 155.203 154.085 155.235 154.702C155.3 155.694 155.267 156.686 155.235 157.705C155.203 158.214 155.429 158.348 156.01 158.348C157.334 158.348 158.625 158.509 159.788 159.045C160.304 159.286 160.756 159.554 160.756 160.118C160.724 163.415 160.724 166.686 160.692 169.984C160.046 170.065 159.69 169.636 159.271 169.368C157.785 168.429 156.43 167.384 154.847 166.526C154.589 166.311 154.298 166.124 154.008 165.936C148.648 162.316 143.256 158.777 137.928 155.238C137.54 155.345 137.605 155.56 137.605 155.72C137.54 158.482 137.347 161.243 137.379 164.005C137.443 168.751 137.379 173.523 137.411 178.269C137.411 178.617 137.443 178.966 137.476 179.315C137.347 184.784 137.443 190.254 137.443 195.723C137.443 197.171 138.38 198.137 139.897 198.753C140.285 198.941 140.672 199.128 140.899 199.477C141.932 200.013 143.127 200.174 144.321 200.282C144.903 200.335 144.999 200.523 144.967 200.925C144.935 201.81 145.29 202.936 144.773 203.472C144.225 204.035 142.804 203.633 141.738 203.66C138.767 203.687 135.797 203.66 132.858 203.66C132.438 203.66 132.019 203.579 131.631 203.821C130.985 203.821 130.371 204.035 129.726 203.955C126.529 204.008 123.332 203.981 120.135 203.981C117.682 203.981 117.649 203.955 117.649 201.944C117.552 201.435 117.649 201.087 117.939 200.765Z" fill="#2EB357"/>
<path id="Vector_2" d="M217.134 202.347C215.132 202.159 213.098 202.24 211.096 202.293C209.869 202.32 208.9 202.052 207.931 201.408C201.893 197.333 195.823 193.311 189.72 189.29C189.01 188.834 188.751 188.539 189.559 187.922C191.141 186.715 191.076 186.689 189.72 185.348C187.944 183.632 186.168 181.916 184.457 180.173C184.005 179.718 183.553 179.53 182.842 179.557C180.808 179.584 178.741 179.53 176.675 179.584C175.577 179.611 174.705 179.396 173.898 178.752C173.446 178.404 172.93 178.109 172.219 177.626C172.897 177.626 173.252 177.626 173.64 177.626C177.192 177.626 180.711 177.626 184.263 177.626C187.879 177.626 190.398 176.205 191.399 173.336C192.626 169.69 192.142 166.285 188.622 163.523C187.912 162.96 188.719 162.665 188.816 162.263C189.333 162.129 189.559 162.504 189.882 162.692C190.528 163.067 191.109 163.55 191.819 163.898C192.078 164.059 192.336 164.22 192.594 164.408C197.115 167.411 201.668 170.387 206.22 173.39C206.672 173.685 207.157 174.194 207.803 173.953C208.481 173.685 208.158 173.068 208.158 172.585C208.19 170.306 208.061 168 207.996 165.721C207.9 162.022 207.9 158.321 207.964 154.621C207.964 154.112 207.964 153.629 207.9 153.12C207.9 152.718 207.996 152.316 207.932 151.913C207.932 146.095 207.932 140.25 207.932 134.432C207.932 133.038 207.448 131.885 205.865 131.241C205.51 131.054 205.155 130.866 205.026 130.518C204.122 130.089 203.089 129.955 202.088 129.901C200.828 129.848 201.539 129.097 201.41 128.668C201.249 128.185 201.571 127.998 202.185 128.024C204.477 128.051 206.77 128.024 209.063 128.024C209.418 128.024 209.773 127.971 210.129 127.944C210.613 127.73 211.13 127.649 211.679 127.73C212.066 127.837 212.453 127.837 212.841 127.837C217.426 127.837 222.012 127.837 226.597 127.837C227.889 127.837 228.244 128.212 228.147 129.231C228.082 129.848 227.63 130.089 226.984 130.17C225.725 130.357 224.498 130.625 223.4 131.162C222.366 131.644 221.689 132.369 221.656 133.333C221.592 136.336 221.495 139.366 221.721 142.369C221.818 142.718 221.689 143.039 221.495 143.335C221.463 143.737 221.398 144.139 221.398 144.568C221.398 157.786 221.398 171.004 221.398 184.222C221.398 184.571 221.463 184.919 221.495 185.268C221.818 185.616 221.914 185.992 221.818 186.421C221.527 187.386 221.689 188.351 221.656 189.317C221.624 190.657 221.656 192.025 221.624 193.365C221.624 193.714 221.559 194.062 221.818 194.384C222.076 194.786 222.56 195.001 222.98 195.269C225.37 196.61 227.856 197.87 230.246 199.237C231.344 199.854 231.763 200.899 231.344 201.918C231.086 202.508 230.472 202.454 229.923 202.454C226.791 202.481 223.627 202.454 220.494 202.454C219.978 202.454 219.428 202.428 218.912 202.562C218.2 202.668 217.651 202.561 217.134 202.347Z" fill="#2EB357"/>
<path id="Vector_3" d="M195.468 112.957C193.272 114.78 191.27 116.469 189.236 118.105C188.719 118.534 188.493 118.963 188.493 119.553C188.526 122.663 188.526 125.773 188.493 128.883C188.493 129.151 188.59 129.446 188.364 129.795C187.622 129.232 186.847 128.722 186.201 128.106C184.522 126.551 182.52 125.961 180.001 125.988C174.092 126.068 168.183 126.015 162.274 125.988C161.144 125.988 160.24 126.363 159.401 126.98C158.173 127.892 156.979 128.803 155.558 129.849C155.558 128.83 155.558 127.972 155.558 127.141C155.558 124.513 155.558 121.913 155.558 119.285C155.558 118.776 155.397 118.427 154.945 118.052C152.911 116.389 150.909 114.7 148.745 112.931C164.405 112.957 179.807 112.957 195.468 112.957Z" fill="#231F20"/>
<path id="Vector_4" d="M185.555 163.497C190.107 165.427 191.883 170.226 189.494 173.926C188.46 175.508 186.943 176.34 184.715 176.34C175.965 176.313 167.246 176.34 158.496 176.313C158.173 176.313 157.528 176.608 157.528 175.991C157.528 175.509 157.205 174.892 158.206 174.758C158.464 174.731 158.754 174.624 159.013 174.516C162.08 173.524 162.306 173.283 162.306 170.575C162.306 167.251 162.306 163.926 162.306 160.628C162.306 158.966 161.758 158.215 159.885 157.599C159.175 157.357 158.399 157.17 157.625 157.116C156.882 157.062 156.785 156.794 156.818 156.285C156.882 154.971 156.624 155.212 158.174 155.185C165.988 155.078 173.802 154.998 181.616 154.917C187.009 154.864 188.527 158.858 187.429 161.7C187.105 162.478 186.588 163.148 185.555 163.497Z" fill="#231F20"/>
<path id="Vector_5" d="M205.736 131.055C206.995 131.135 208.19 132.476 208.222 133.897C208.254 135.398 208.254 136.873 208.254 138.374C208.254 142.718 208.287 147.034 208.287 151.378C208.287 151.619 208.222 151.834 208.222 152.075C207.254 153.228 205.865 154.005 204.638 154.917C201.376 157.303 198.148 159.69 194.854 162.022C193.853 162.746 193.013 163.658 191.721 164.06C190.656 163.604 189.849 162.853 188.88 162.29C189.494 160.655 189.494 158.992 188.751 157.384C187.556 154.863 184.683 153.496 180.872 153.63C179.161 153.684 177.417 153.657 175.673 153.657C175.48 153.469 175.318 153.308 175.125 153.148C175.286 152.585 175.867 152.478 176.449 152.344C179.161 152.263 181.777 151.834 184.198 150.815C187.234 149.528 189.139 147.571 189.462 144.675C189.591 144.3 189.978 144.139 190.301 143.925C195.403 140.868 200.537 137.865 205.639 134.835C205.768 134.755 205.962 134.701 206.059 134.487C204.089 134.541 202.184 134.809 200.246 134.916C200.02 134.916 199.827 134.996 199.633 134.996C199.375 134.996 199.084 134.996 198.987 134.782C198.891 134.567 199.117 134.407 199.31 134.273C199.665 134.031 200.085 133.87 200.473 133.656C201.732 132.959 203.024 132.289 204.315 131.618C204.67 131.376 205.09 131.001 205.736 131.055Z" fill="#FEF100"/>
<path id="Vector_6" d="M155.008 166.366C155.88 166.58 156.429 167.17 157.139 167.599C158.366 168.35 159.529 169.154 160.691 169.905C160.691 169.958 160.724 170.012 160.724 170.092C160.82 172.613 160.724 172.72 157.785 173.524C157.462 173.605 157.107 173.739 156.784 173.765C156.203 173.846 155.944 174.06 155.977 174.597C156.041 175.347 156.041 176.125 155.977 176.876C155.912 177.519 156.203 177.653 156.913 177.653C160.981 177.626 165.05 177.626 169.118 177.653C169.441 177.653 169.732 177.707 170.054 177.733C169.28 178.645 168.149 179.128 166.922 179.53C163.531 179.556 160.141 179.583 156.751 179.557C155.911 179.557 155.782 179.771 155.685 180.442C155.524 181.889 155.943 183.069 157.429 183.927C157.622 184.034 157.719 184.249 157.881 184.383C157.816 184.919 157.235 185.053 156.815 185.268C151.422 188.217 146.03 191.22 140.605 194.142C140.121 194.383 139.637 194.651 139.12 194.973C139.475 195.134 139.798 195.054 140.121 195.054C142.252 195.054 144.383 195.054 146.482 195.081C146.805 195.081 147.289 195.027 147.386 195.375C147.451 195.644 147.031 195.778 146.74 195.912C144.9 196.743 143.124 197.654 141.316 198.512C140.896 198.7 140.476 198.995 139.927 198.888C138.377 198.727 137.053 197.333 137.021 195.778C136.989 193.203 136.957 190.603 136.957 188.029C136.957 185.401 136.957 182.747 136.957 180.119C136.957 179.771 136.86 179.422 137.15 179.1C137.376 178.564 137.925 178.269 138.377 177.921C141.8 175.507 145.158 173.041 148.581 170.628C150.325 169.394 152.068 168.134 153.812 166.874C154.233 166.661 154.556 166.419 155.008 166.366Z" fill="#FEF100"/>
<path id="Vector_7" d="M176.675 151.083C172.929 150.788 169.216 150.252 165.567 149.394C164.146 149.073 164.114 149.073 164.081 150.252C164.081 150.467 164.081 150.654 164.049 150.869C163.984 151.137 163.855 151.405 163.532 151.485C163.145 151.566 162.984 151.298 162.822 151.056C160.659 148.161 158.431 145.319 155.751 142.718C155.492 142.477 155.363 142.182 155.621 141.914C155.88 141.673 156.299 141.7 156.59 141.887C157.171 142.209 157.753 142.557 158.301 142.906C162.079 145.319 165.922 147.598 170.7 148.456C172.283 148.751 173.865 149.046 175.511 149.099C175.641 149.099 175.802 149.126 175.931 149.126C177.481 149.153 179.063 148.483 179.322 147.705C179.644 146.847 178.676 145.292 177.449 144.675C175.996 143.925 174.316 143.817 172.67 143.629C168.957 143.227 165.437 142.316 162.273 140.6C160.529 139.634 159.173 138.375 158.43 136.739C157.203 134.031 158.463 131.752 160.981 130.492C164.791 128.615 168.795 127.945 172.993 129.58C174.059 129.982 175.189 130.25 176.351 130.277C177.126 130.304 177.869 130.223 177.804 129.312C177.772 129.017 177.966 128.722 178.353 128.641C178.741 128.534 179.063 128.641 179.289 128.909C181.324 131.188 183.939 133.012 186.264 135.076C186.619 135.398 187.491 135.693 186.878 136.256C186.329 136.739 185.618 136.47 185.069 136.122C182.325 134.353 179.257 133.119 176.028 132.127C174.026 131.511 171.992 131.001 169.828 131.162C169.473 131.189 169.118 131.242 168.795 131.323C167.794 131.564 167.051 132.02 166.954 132.931C166.89 133.843 167.438 134.513 168.407 134.915C169.893 135.505 171.475 135.8 173.057 136.095C175.285 136.524 177.545 136.873 179.773 137.329C182.97 137.999 185.488 139.473 187.038 141.94C188.524 144.3 187.91 146.9 185.456 148.616C182.907 150.332 179.872 150.895 176.675 151.083Z" fill="#231F20"/>
<path id="Vector_8" d="M164.179 91.2397C161.854 89.9794 159.626 88.9609 157.915 86.9765C158.205 88.478 158.431 89.7114 158.657 90.9444C158.722 91.3464 158.98 91.6681 159.335 91.9098C160.174 92.4727 159.496 92.8484 159.109 93.2504C158.625 93.8133 158.302 93.2773 158.011 93.0896C153.49 90.3011 150.035 86.8425 147.84 82.4988C146.064 78.9598 146.354 75.5815 148.614 72.2837C150.164 70.0585 152.199 68.1277 154.168 66.1974C154.685 65.7149 155.137 65.1784 155.686 64.7227C158.366 62.4975 159.496 59.7894 159.561 56.706C159.593 55.4994 159.948 54.2932 160.142 52.9793C162.338 56.0091 162.402 59.2533 162.305 62.5511C167.73 59.0389 172.121 55.0169 173.607 49.3063C173.833 48.5021 173.962 47.6976 173.865 46.8662C173.801 46.3301 174.22 46.2229 174.672 46.1425C175.059 46.0621 175.415 45.794 175.738 46.3033C180.387 52.8989 185.877 59.0925 189.978 65.983C192.399 70.0313 194.369 74.2409 195.306 78.7185C195.919 81.6947 195.951 84.6709 194.304 87.4321C191.85 91.5345 187.685 93.7061 182.357 94.4834C181.937 94.537 181.518 94.5638 181.001 94.6174C183.1 89.2285 186.103 84.0534 185.812 78.2088C185.328 78.316 185.134 78.5304 184.972 78.7449C183.261 81.0505 181.001 83.0081 178.837 85.0188C177.384 86.3595 175.964 87.7002 174.93 89.2821C174.511 89.8986 174.026 89.5233 173.574 89.4965C173.187 89.4429 172.832 89.3625 172.993 88.88C173.09 88.612 172.961 88.3171 172.702 88.0759C170.442 85.6899 169.602 82.8477 169.086 79.9252C168.924 79.0938 168.795 78.2629 168.634 77.2707C167.407 78.6649 165.986 79.6835 164.695 80.7829C162.467 82.6864 162.338 84.9389 163.015 87.3517C163.436 88.5316 163.791 89.7918 164.179 91.2397Z" fill="#231F20"/>
<path id="Vector_9" d="M178.709 186.85C178.709 189.96 178.709 192.936 178.709 196.073C177.288 195.162 175.965 194.304 174.64 193.446C173.445 192.641 172.057 193.178 170.766 193.097C170.507 193.07 170.54 193.338 170.54 193.526C170.54 195.644 170.54 197.762 170.54 199.88C170.54 200.282 170.733 200.39 171.185 200.39C173.607 200.39 175.996 200.416 178.418 200.363C179.581 200.336 180.582 199.827 181.583 199.397C184.392 198.191 187.105 196.85 189.236 194.866C189.688 194.437 190.011 194.679 190.398 194.839C191.787 195.456 191.787 195.456 190.883 196.475C189.333 198.271 187.783 200.041 186.233 201.837C185.91 202.239 185.555 202.427 184.941 202.427C176.126 202.4 167.311 202.4 158.496 202.427C157.818 202.427 157.689 202.293 157.592 201.703C157.334 200.202 157.915 199.156 159.626 198.593C161.854 197.869 162.532 196.555 162.338 194.544C162.08 191.97 162.274 189.37 162.274 186.795C162.274 186.313 162.112 185.964 161.693 185.642C160.433 184.623 159.206 183.551 157.947 182.505C157.753 182.345 157.527 182.184 157.398 181.969C156.946 181.246 157.269 180.816 158.237 180.816C166.245 180.816 174.221 180.816 182.229 180.816C182.81 180.816 183.197 180.95 183.585 181.326C185.2 182.934 186.814 184.516 188.46 186.098C188.912 186.527 188.848 186.768 188.396 187.144C187.266 188.029 187.298 188.056 186.103 187.251C184.263 186.018 182.39 184.811 180.549 183.551C180.162 183.31 179.807 183.176 179.29 183.176C176.642 183.176 173.994 183.176 171.314 183.149C170.733 183.149 170.475 183.31 170.507 183.819C170.507 185.75 170.507 187.707 170.507 189.638C170.507 190.04 170.669 190.174 171.185 190.2C172.864 190.308 174.35 190.12 175.609 189.021C176.481 188.217 177.579 187.627 178.709 186.85Z" fill="#231F20"/>
<path id="Vector_10" d="M174.576 206.262C177.03 206.262 179.451 206.288 181.906 206.235C182.616 206.235 182.81 206.396 182.713 206.958C181.777 213.125 180.872 219.292 180.001 225.485C179.936 226.048 179.549 225.994 179.129 225.968C178.483 225.914 178.322 226.102 178.29 226.638C178.193 229.587 177.999 232.563 177.902 235.512C177.87 236.424 177.354 237.014 176.417 237.389C175.061 237.925 173.673 237.898 172.348 237.308C171.541 236.96 171.089 236.397 171.024 235.619C170.863 232.59 170.637 229.587 170.476 226.557C170.443 226.048 170.282 225.887 169.701 225.94C169.281 225.994 168.991 225.94 168.926 225.485C168.087 219.345 167.247 213.178 166.343 207.038C166.246 206.342 166.44 206.207 167.247 206.207C169.7 206.315 172.154 206.262 174.576 206.262Z" fill="#231F20"/>
<path id="Vector_11" d="M172.348 106.603C163.824 106.603 155.299 106.603 146.742 106.603C146.032 106.603 145.321 106.603 144.643 106.415C143.255 106.066 142.512 105.289 142.577 104.19C142.641 103.144 143.545 102.259 144.837 102.045C145.353 101.965 145.903 101.938 146.419 101.938C163.63 101.938 180.841 101.938 198.018 101.938C200.375 101.938 201.474 102.85 201.312 104.619C201.183 105.933 200.279 106.603 198.665 106.603C189.914 106.603 181.131 106.603 172.348 106.603Z" fill="#231F20"/>
<path id="Vector_12" d="M217.134 202.347C217.715 202.347 218.265 202.374 218.846 202.374C219.944 202.508 220.751 203.124 221.655 203.58C228.048 206.824 234.377 210.176 240.77 213.42C241.19 213.635 241.933 213.795 241.772 214.305C241.61 214.734 240.9 214.573 240.448 214.573C237.703 214.573 234.926 214.6 232.117 214.573C247.487 220.927 262.889 227.121 277.484 233.127C272.188 229.856 266.279 226.129 260.338 222.429C256.173 219.828 252.04 217.227 247.874 214.626C247.713 214.519 247.519 214.412 247.358 214.305C247.164 214.144 246.874 213.983 246.938 213.742C247.035 213.42 247.422 213.447 247.745 213.447C250.393 213.42 253.041 213.42 255.559 213.447C247.842 208.889 239.963 204.277 232.117 199.666C228.985 197.816 225.853 195.939 222.688 194.089C222.301 193.875 221.751 193.741 221.849 193.178C222.591 192.749 223.431 193.017 224.206 192.936C226.595 192.829 228.985 193.178 231.6 193.124C229.728 191.837 227.952 190.711 226.176 189.585C224.916 188.781 223.657 187.976 222.398 187.145C222.043 186.904 221.655 186.689 221.526 186.287C221.268 185.992 221.365 185.616 221.332 185.294C224.336 187.225 227.37 189.155 230.374 191.086C231.924 192.078 233.474 193.097 235.217 194.25C231.504 194.116 228.081 194.008 224.658 193.901C224.626 193.955 224.626 194.008 224.594 194.062C236.025 200.792 247.455 207.495 259.047 214.331C255.818 214.331 252.783 214.331 249.619 214.331C249.812 214.787 250.167 214.894 250.458 215.082C261.372 221.919 272.318 228.756 283.232 235.593C283.329 235.673 283.458 235.727 283.555 235.807C283.813 235.995 284.168 236.102 283.91 236.504C283.62 236.933 283.329 236.665 283.039 236.558C281.489 235.941 279.939 235.298 278.389 234.654C262.18 228.005 245.905 221.356 229.664 214.707C229.341 214.573 228.76 214.546 228.889 214.037C229.018 213.447 229.599 213.661 230.019 213.661C232.893 213.635 235.735 213.661 238.834 213.661C238.35 213.366 238.027 213.179 237.671 213.018C231.02 209.586 224.336 206.154 217.684 202.749C217.489 202.615 217.296 202.481 217.134 202.347Z" fill="#231F20"/>
<path id="Vector_13" d="M211.677 127.945C211.128 127.945 210.611 127.945 210.062 127.945C212.355 126.523 214.841 125.344 217.231 124.057C223.172 120.893 229.146 117.729 235.087 114.566C235.378 114.405 235.701 114.298 235.927 114.003C234.054 114.244 232.181 114.458 230.34 114.673C229.953 114.726 229.501 114.941 229.307 114.405C229.145 113.896 229.662 113.896 229.985 113.762C239.058 109.713 248.131 105.664 257.205 101.616C263.501 98.8007 269.83 95.9859 276.159 93.1705C276.482 93.0365 276.837 92.5004 277.29 93.0365C277.806 93.6262 276.999 93.7334 276.709 93.9483C266.828 100.705 256.947 107.461 247.034 114.218C246.873 114.325 246.744 114.432 246.357 114.7C248.907 114.566 251.2 114.459 253.783 114.352C243.967 121.376 234.345 128.294 224.529 135.318C227.208 135.318 229.663 135.318 232.214 135.318C232.052 135.747 231.729 135.854 231.471 136.042C228.113 138.482 224.755 140.895 221.397 143.308C221.397 142.986 221.397 142.665 221.429 142.342C222.139 141.216 223.528 140.626 224.594 139.768C226.079 138.615 227.694 137.543 229.276 136.336C228.985 136.149 228.695 136.202 228.436 136.202C226.66 136.229 224.917 136.256 223.141 136.202C222.818 136.202 222.43 136.229 222.301 135.934C222.172 135.64 222.495 135.452 222.753 135.291C226.886 132.315 231.052 129.339 235.185 126.363C239.092 123.574 242.999 120.786 246.906 117.944C248.004 117.14 249.198 116.389 250.232 115.45C248.617 115.718 247.003 115.423 245.389 115.691C244.872 115.772 244.065 115.933 243.839 115.477C243.613 115.048 244.355 114.78 244.742 114.512C251.621 109.846 258.433 105.127 265.311 100.462C267.41 99.041 269.445 97.5931 271.253 96.4138C258.789 102.044 246.034 107.782 233.183 113.466C234.636 113.118 236.057 113.037 237.478 112.903C237.962 112.85 238.414 112.877 238.608 113.332C238.802 113.815 238.382 114.029 237.995 114.244C231.86 117.515 225.692 120.759 219.557 124.03C217.297 125.237 215.037 126.443 212.744 127.596C212.42 127.757 212.129 127.971 211.677 127.945Z" fill="#231F20"/>
<path id="Vector_14" d="M172.122 108.372C180.517 108.372 188.881 108.372 197.276 108.345C198.083 108.345 198.342 108.506 198.31 109.203C198.245 111.187 198.31 111.187 195.888 111.187C179.646 111.187 163.404 111.187 147.195 111.214C146.226 111.214 145.967 111.027 146 110.222C146.064 108.372 146.032 108.372 148.26 108.372C156.203 108.372 164.179 108.372 172.122 108.372Z" fill="#231F20"/>
<path id="Vector_15" d="M118.133 133.468C118.843 134.138 119.909 134.567 120.167 135.559C112.321 131.162 104.442 126.792 96.5955 122.395C93.8188 120.84 91.0093 119.284 88.2649 117.703C87.9744 117.542 87.4902 117.488 87.7161 117.006C87.9421 116.47 88.394 116.711 88.7497 116.738C91.3327 117.006 93.9485 117.274 96.8544 117.569C95.4334 116.657 94.2713 115.934 93.1087 115.183C82.9375 108.695 72.7662 102.206 62.5945 95.691C62.3685 95.5302 61.9166 95.4498 62.0134 95.1549C62.1425 94.6993 62.4653 94.6457 63.0147 94.8869C66.2761 96.3348 69.6016 97.729 72.8954 99.1233C86.1344 104.808 99.4057 110.518 112.644 116.203C112.741 116.256 112.87 116.256 112.935 116.31C113.193 116.524 113.838 116.444 113.677 117.007C113.516 117.543 113.031 117.355 112.644 117.328C110.642 117.194 108.64 117.033 106.638 116.899C106.25 116.873 105.863 116.846 105.443 116.819C105.604 117.167 105.959 117.248 106.25 117.409C112.191 120.707 118.132 123.978 124.041 127.275C124.429 127.49 124.848 127.624 125.107 127.972C124.558 127.972 124.041 127.972 123.493 127.999C122.169 127.704 121.168 126.9 120.07 126.283C116.744 124.46 113.418 122.583 110.092 120.787C107.993 119.634 105.959 118.401 103.828 117.328C103.376 117.114 102.892 116.819 103.118 116.282C103.312 115.8 103.86 115.773 104.345 115.8C106.25 115.934 108.123 116.148 109.899 116.202C96.1113 110.223 82.0976 104.298 68.7618 98.5063C71.9264 100.383 75.5101 102.77 79.1589 105.075C84.5515 108.48 90.0086 111.966 95.4329 115.451C96.7247 116.282 98.0159 117.113 99.3077 117.918C99.5659 118.079 100.018 118.24 99.8565 118.588C99.695 118.883 99.2431 118.856 98.888 118.803C96.9506 118.615 95.0132 118.427 93.1081 118.213C92.3657 118.132 91.6549 118.132 90.9125 117.998C95.5297 120.599 100.115 123.2 104.733 125.774C108.64 127.945 112.514 130.171 116.454 132.316C117.068 132.637 117.649 132.985 118.133 133.468Z" fill="#231F20"/>
<path id="Vector_16" d="M171.961 100.168C166.019 100.168 160.078 100.141 154.137 100.195C153.233 100.195 152.942 100.007 153.038 99.2828C153.103 98.6395 153.071 97.9957 153.038 97.3524C153.006 96.9772 153.2 96.8163 153.652 96.8432C153.813 96.8432 154.007 96.8432 154.168 96.8432C166.051 96.8432 177.966 96.8431 189.849 96.8163C190.785 96.8163 191.14 97.004 191.011 97.7818C190.882 98.5591 191.399 99.5513 190.785 100.061C190.204 100.516 189.042 100.195 188.105 100.195C182.745 100.168 177.353 100.168 171.961 100.168Z" fill="#242021"/>
<path id="Vector_17" d="M129.887 203.634C130.468 203.634 131.049 203.473 131.598 203.741C124.139 207.28 116.648 210.792 109.189 214.332C109.221 214.385 109.221 214.439 109.254 214.493C111.837 214.6 114.388 214.707 116.971 214.841C117.003 214.895 117.003 214.948 117.035 215.002C115.292 215.779 113.548 216.584 111.804 217.361C99.2437 222.965 86.6826 228.542 74.1221 234.145C73.8316 234.279 73.5733 234.386 73.2828 234.52C72.96 234.628 72.8631 234.44 72.7017 234.279C72.5403 234.091 72.5726 233.957 72.7663 233.823C72.9277 233.716 73.0891 233.582 73.2505 233.475C81.452 227.657 89.6536 221.866 97.8557 216.047C98.1139 215.86 98.469 215.752 98.5658 215.377C96.4348 215.029 94.3037 214.653 91.9466 214.251C94.11 213.125 96.0797 212.079 98.0494 211.06C104.475 207.709 110.933 204.358 117.359 201.033C117.52 200.953 117.746 200.899 117.94 200.818C117.875 201.113 117.843 201.408 117.778 201.703C117.553 202.24 116.939 202.4 116.454 202.669C109.512 206.262 102.602 209.854 95.6917 213.474C95.5626 213.528 95.4335 213.581 95.3367 213.742C95.6595 213.93 96.0468 213.93 96.4025 213.983C97.6297 214.198 98.8241 214.359 100.051 214.6C100.955 214.788 101.02 215.056 100.31 215.565C96.5962 218.22 92.8505 220.874 89.1048 223.528C85.9079 225.78 82.6793 228.033 79.5146 230.338C78.9659 230.714 78.4165 231.089 77.8355 231.384C89.589 226.076 101.407 220.874 112.999 215.673C110.997 215.378 108.769 215.592 106.574 215.297C106.315 215.27 105.993 215.27 105.928 215.056C105.831 214.788 106.186 214.654 106.412 214.547C108.317 213.608 110.287 212.724 112.225 211.785C117.1 209.453 122.041 207.2 126.884 204.868C127.82 204.358 128.757 203.821 129.887 203.634Z" fill="#232020"/>
<path id="Vector_18" d="M197.696 227.979C201.667 227.979 204.8 230.607 204.8 233.904C204.767 237.283 201.667 239.91 197.631 239.91C193.627 239.91 190.559 237.283 190.559 233.878C190.592 230.526 193.692 227.952 197.696 227.979Z" fill="#242021"/>
<path id="Vector_19" d="M140.026 198.888C142.448 197.735 144.869 196.609 147.485 195.349C144.321 195.349 141.415 195.349 138.347 195.349C138.573 194.92 138.96 194.84 139.251 194.679C145.224 191.408 151.198 188.137 157.204 184.866C157.462 184.732 157.72 184.544 157.946 184.383C158.786 184.705 158.689 184.973 157.946 185.376C152.844 188.137 147.743 190.952 142.641 193.741C142.221 193.955 141.834 194.197 141.188 194.545C144.481 194.545 147.516 194.545 150.552 194.545C150.584 194.626 150.616 194.679 150.649 194.76C147.387 196.315 144.126 197.87 140.865 199.425C140.543 199.29 140.155 199.237 140.026 198.888Z" fill="#242021"/>
<path id="Vector_20" d="M205.736 131.055C203.475 132.261 201.248 133.441 198.987 134.647C198.987 134.701 199.02 134.755 199.02 134.808C201.57 134.594 204.122 134.406 206.672 134.192C206.705 134.245 206.769 134.326 206.801 134.379C200.989 137.811 195.209 141.216 189.397 144.648C189.171 144.032 189.462 143.629 190.107 143.281C194.337 140.814 198.567 138.32 202.798 135.8C203.088 135.639 203.443 135.532 203.605 135.183C201.635 135.344 199.73 135.532 197.825 135.666C197.405 135.693 196.791 136.014 196.565 135.398C196.371 134.862 197.017 134.808 197.34 134.621C199.891 133.253 202.442 131.912 204.993 130.545C205.284 130.679 205.671 130.706 205.736 131.055Z" fill="#242021"/>
<path id="Vector_21" d="M70.1504 252.672C70.1504 251.573 70.1827 250.501 70.1504 249.455C70.1182 248.919 70.441 248.919 70.9252 248.919C71.3771 248.946 71.829 248.812 71.7968 249.455C71.7322 251.037 71.7968 252.619 71.7645 254.201C71.7645 254.495 72.0873 255.005 71.4739 255.059C70.8929 255.112 70.2467 255.273 69.7625 254.683C68.8264 253.557 67.7605 252.485 66.5979 251.198C66.5979 252.378 66.5656 253.343 66.5979 254.335C66.5979 254.817 66.5979 255.113 65.7909 255.113C64.9839 255.113 64.887 254.845 64.9193 254.281C64.9516 252.753 64.9193 251.225 64.9516 249.697C64.9516 249.428 64.661 248.946 65.2744 248.919C65.7909 248.892 66.3725 248.705 66.8244 249.214C67.696 250.233 68.665 251.225 69.5688 252.217C69.6662 252.377 69.7308 252.619 70.1504 252.672Z" fill="#010101"/>
<path id="Vector_22" d="M191.173 251.868C192.304 252.297 192.788 252.941 192.497 253.825C192.207 254.737 191.335 255.032 190.302 255.085C189.268 255.112 188.235 255.085 187.234 255.112C186.685 255.139 186.62 254.925 186.62 254.523C186.653 252.86 186.62 251.171 186.62 249.509C186.62 249.268 186.491 248.919 187.008 248.946C188.203 248.973 189.397 248.839 190.592 249.053C191.399 249.214 191.916 249.589 192.078 250.26C192.238 250.903 192.045 251.466 191.173 251.868Z" fill="#010101"/>
<path id="Vector_23" d="M242.708 254.442C241.48 255.112 240.286 255.246 239.156 254.495C238.219 253.852 238.025 252.967 238.316 252.002C238.768 250.554 240.383 249.937 241.997 250.607C242.191 250.688 242.288 250.875 242.514 250.527C242.772 250.098 243.418 250.339 243.87 250.393C244.323 250.447 244.096 250.822 244.096 251.063C244.129 252.189 244.096 253.288 244.096 254.414C244.096 255.433 243.709 256.264 242.514 256.72C241.287 257.176 240.125 257.042 238.93 256.559C238.381 256.345 238.736 256.077 238.865 255.835C238.994 255.541 239.156 255.299 239.608 255.567C240.092 255.835 240.673 255.889 241.254 255.809C242.094 255.648 242.675 255.3 242.708 254.442Z" fill="#010101"/>
<path id="Vector_24" d="M223.366 252.002C223.366 251.171 223.398 250.367 223.366 249.535C223.334 249.106 223.463 248.919 224.044 248.919C225.4 248.945 226.724 248.972 228.08 248.919C228.726 248.892 228.758 249.133 228.726 249.535C228.726 249.91 228.758 250.232 228.08 250.178C227.37 250.125 226.659 250.178 225.949 250.152C225.432 250.152 224.948 250.044 224.948 250.768C224.948 251.465 225.368 251.411 225.917 251.411C226.433 251.385 226.983 251.411 227.499 251.411C228.015 251.385 228.371 251.411 228.371 252.001C228.371 252.564 228.08 252.618 227.531 252.591C226.983 252.564 226.401 252.618 225.82 252.591C225.271 252.564 224.916 252.591 224.948 253.207C224.948 253.77 225.174 253.904 225.788 253.851C226.595 253.797 227.402 253.877 228.241 253.824C228.984 253.77 228.758 254.199 228.823 254.521C228.855 254.896 228.79 255.11 228.209 255.084C226.788 255.057 225.368 255.057 223.979 255.084C223.463 255.084 223.301 254.95 223.334 254.521C223.366 253.691 223.366 252.833 223.366 252.002Z" fill="#010101"/>
<path id="Vector_25" d="M122.912 255.139C122.492 255.139 121.749 254.978 121.104 254.603C120.813 254.415 120.07 254.362 120.523 253.825C120.846 253.423 121.136 252.86 121.944 253.477C122.396 253.825 123.042 254.013 123.72 253.906C124.107 253.852 124.398 253.691 124.43 253.37C124.462 253.075 124.236 252.86 123.913 252.78C123.268 252.619 122.622 252.458 122.008 252.271C121.007 251.976 120.523 251.386 120.587 250.528C120.652 249.67 121.265 249.16 122.234 248.892C123.268 248.624 124.268 248.785 125.205 249.16C125.496 249.268 126.174 249.321 125.786 249.857C125.496 250.233 125.27 250.716 124.527 250.259C124.139 250.018 123.623 249.938 123.106 249.965C122.718 249.991 122.396 250.125 122.299 250.447C122.202 250.795 122.492 250.983 122.848 251.09C123.203 251.198 123.59 251.278 123.978 251.358C125.657 251.734 126.303 252.431 126.109 253.557C125.947 254.576 124.85 255.193 122.912 255.139Z" fill="#010101"/>
<path id="Vector_26" d="M213.97 251.922C215.068 250.929 215.843 249.857 217.619 250.447C217.102 250.903 216.618 251.386 216.069 251.841C215.681 252.136 215.649 252.377 215.972 252.726C216.618 253.45 217.167 254.228 217.877 255.085C217.07 254.978 216.295 255.38 215.746 254.764C215.326 254.308 214.971 253.798 214.583 253.316C213.873 253.611 213.97 254.12 214.035 254.576C214.099 255.166 213.68 255.085 213.228 255.085C212.808 255.085 212.388 255.193 212.421 254.603C212.453 252.753 212.453 250.903 212.421 249.053C212.421 248.464 212.84 248.571 213.228 248.571C213.68 248.571 214.067 248.517 214.002 249.08C213.937 249.964 213.97 250.849 213.97 251.922Z" fill="black"/>
<path id="Vector_27" d="M158.851 250.42C160.046 250.125 160.723 250.393 161.014 251.386C161.175 251.975 161.53 252.539 161.821 253.155C162.337 252.619 162.563 252.002 162.757 251.412C163.08 250.42 163.693 250.072 164.953 250.42C164.049 252.297 163.177 254.2 162.208 256.077C161.821 256.828 160.852 257.123 159.884 256.828C159.528 256.721 158.915 256.667 159.109 256.211C159.238 255.89 159.335 255.246 160.239 255.622C160.82 255.863 161.175 255.407 160.917 254.763C160.368 253.476 159.722 252.189 159.141 250.903C159.012 250.795 158.947 250.635 158.851 250.42Z" fill="#010101"/>
<path id="Vector_28" d="M124.591 144.38C124.785 144.675 124.882 144.97 124.591 145.265C121.007 143.281 117.423 141.324 113.871 139.339C113.613 139.205 113.193 139.098 113.355 138.669C113.516 138.214 113.904 138.321 114.291 138.348C117.585 138.589 120.878 138.803 124.204 139.045C124.365 139.232 124.882 139.313 124.688 139.607C124.462 139.956 123.946 139.661 123.558 139.768C123.332 139.956 123.041 139.983 122.751 139.956C120.684 139.768 118.585 139.795 116.519 139.473C116.293 139.447 116.035 139.42 115.938 139.286C118.456 140.653 121.008 142.074 123.591 143.495C123.977 143.763 124.462 143.924 124.591 144.38Z" fill="#242121"/>
<path id="Vector_29" d="M268.669 253.181C268.184 253.181 267.668 253.181 267.183 253.181C266.989 253.181 266.731 253.101 266.667 253.342C266.634 253.53 266.796 253.664 266.989 253.771C267.603 254.146 268.281 254.2 268.862 253.878C269.54 253.503 269.798 253.959 269.993 254.227C270.315 254.656 269.702 254.736 269.444 254.87C268.281 255.406 266.7 255.219 265.795 254.495C264.956 253.825 264.697 252.565 265.214 251.626C265.731 250.687 266.99 250.178 268.411 250.312C269.896 250.473 270.897 251.599 270.703 252.833C270.639 253.181 270.445 253.181 270.155 253.181C269.638 253.181 269.153 253.181 268.669 253.181Z" fill="#010101"/>
<path id="Vector_30" d="M261.242 253.181C260.758 253.181 260.242 253.181 259.757 253.181C259.563 253.181 259.305 253.101 259.24 253.342C259.176 253.53 259.37 253.664 259.531 253.771C260.112 254.146 260.823 254.227 261.404 253.878C262.082 253.503 262.34 253.932 262.534 254.227C262.889 254.656 262.276 254.736 261.985 254.87C260.823 255.406 259.241 255.219 258.337 254.495C257.497 253.825 257.238 252.565 257.755 251.626C258.272 250.687 259.531 250.178 260.952 250.312C262.438 250.473 263.439 251.572 263.245 252.833C263.18 253.181 263.019 253.181 262.696 253.181C262.211 253.181 261.727 253.181 261.242 253.181Z" fill="#010101"/>
<path id="Vector_31" d="M150.133 253.181C149.681 253.181 149.196 253.155 148.744 253.181C148.518 253.181 148.195 253.047 148.131 253.342C148.098 253.557 148.324 253.718 148.55 253.825C149.131 254.12 149.81 254.2 150.359 253.852C151.036 253.45 151.262 253.932 151.489 254.2C151.812 254.602 151.263 254.682 151.005 254.79C149.842 255.353 148.196 255.192 147.259 254.441C146.387 253.718 146.161 252.43 146.775 251.492C147.356 250.553 148.615 250.098 150.036 250.285C151.457 250.473 152.426 251.626 152.2 252.806C152.135 253.074 152.038 253.154 151.748 253.154C151.198 253.181 150.649 253.181 150.133 253.181Z" fill="#010101"/>
<path id="Vector_32" d="M77.5771 252.056C77.2543 251.305 76.7055 251.09 75.672 251.52C74.9941 251.814 74.6707 251.627 74.477 251.171C74.2188 250.635 74.8967 250.662 75.1872 250.528C75.8974 250.233 76.7049 250.233 77.4797 250.313C78.4481 250.447 79.0943 250.903 79.1588 251.761C79.1911 252.727 79.288 253.692 79.1911 254.657C79.0943 255.488 77.9962 255.14 77.867 255.006C77.4797 254.603 77.286 254.898 76.9955 255.006C76.1239 255.327 74.9935 255.086 74.4124 254.469C73.67 253.665 74.0574 252.62 75.2195 252.244C75.9625 252.029 76.7695 252.163 77.5771 252.056Z" fill="#010101"/>
<path id="Vector_33" d="M201.635 252.109C201.312 251.305 200.796 251.171 199.633 251.546C199.278 251.654 198.987 251.841 198.665 251.439C198.374 251.037 198.374 250.85 198.923 250.661C199.827 250.313 200.763 250.233 201.699 250.393C202.571 250.554 203.153 251.01 203.185 251.788C203.217 252.753 203.282 253.718 203.217 254.683C203.153 255.542 202.055 255.166 201.893 255.032C201.506 254.71 201.344 254.898 201.022 255.005C200.085 255.327 199.213 255.193 198.503 254.576C197.664 253.799 197.987 252.646 199.181 252.297C199.568 252.19 200.02 252.163 200.441 252.11C200.828 252.083 201.215 252.109 201.635 252.109Z" fill="#010101"/>
<path id="Vector_34" d="M109.286 252.056C108.834 251.037 107.994 251.278 107.284 251.52C106.703 251.734 106.38 251.654 106.121 251.225C105.798 250.662 106.444 250.662 106.767 250.555C107.509 250.233 108.349 250.233 109.156 250.34C110.06 250.474 110.738 250.903 110.771 251.735C110.835 252.727 110.835 253.718 110.835 254.711C110.835 255.059 109.769 255.354 109.447 255.006C109.092 254.603 108.93 254.872 108.672 254.979C107.768 255.3 106.928 255.193 106.218 254.657C105.217 253.879 105.572 252.646 106.864 252.271C107.607 252.056 108.381 252.136 109.286 252.056Z" fill="#010101"/>
<path id="Vector_35" d="M93.3993 250.313C95.1107 250.313 96.3702 251.305 96.4025 252.699C96.4348 254.12 95.1107 255.166 93.367 255.166C91.6878 255.166 90.396 254.12 90.3638 252.753C90.3315 251.331 91.6233 250.286 93.3993 250.313Z" fill="#010101"/>
<path id="Vector_36" d="M172.864 250.313C174.576 250.313 175.835 251.332 175.835 252.726C175.835 254.121 174.543 255.193 172.767 255.193C171.088 255.193 169.797 254.121 169.797 252.754C169.797 251.305 171.057 250.286 172.864 250.313Z" fill="#010101"/>
<path id="Vector_37" d="M130.726 250.313C132.502 250.313 133.794 251.332 133.794 252.753C133.794 254.121 132.535 255.166 130.823 255.193C129.112 255.219 127.755 254.147 127.755 252.726C127.755 251.332 129.015 250.313 130.726 250.313Z" fill="#010101"/>
<path id="Vector_38" d="M230.857 252.645C230.857 252.109 230.857 251.6 230.857 251.063C230.857 250.42 231.826 249.937 232.278 250.393C232.698 250.849 232.892 250.581 233.182 250.447C234.474 249.991 235.83 250.527 236.12 251.68C236.379 252.699 236.217 253.718 236.217 254.737C236.217 255.354 235.604 255.032 235.248 255.085C234.861 255.166 234.57 255.112 234.603 254.657C234.635 253.933 234.603 253.182 234.603 252.458C234.603 251.895 234.473 251.332 233.634 251.332C232.827 251.332 232.471 251.788 232.439 252.431C232.439 253.102 232.407 253.772 232.439 254.442C232.471 254.898 232.342 255.112 231.697 255.085C231.148 255.059 230.728 255.085 230.825 254.469C230.922 253.879 230.857 253.262 230.857 252.645Z" fill="#010101"/>
<path id="Vector_39" d="M255.559 253.423C255.559 253.718 255.559 254.013 255.559 254.308C255.592 254.764 255.624 255.112 254.785 255.112C253.945 255.112 253.881 254.817 253.913 254.281C253.945 253.638 253.913 252.994 253.913 252.351C253.913 251.788 253.687 251.305 252.944 251.305C252.201 251.305 251.814 251.734 251.781 252.351C251.749 253.075 251.717 253.826 251.781 254.549C251.814 255.085 251.523 255.112 251.039 255.085C250.587 255.059 250.135 255.166 250.167 254.549C250.232 253.37 250.167 252.217 250.2 251.037C250.2 250.796 250.006 250.421 250.393 250.367C250.813 250.287 251.491 250.153 251.653 250.447C251.911 250.903 252.072 250.635 252.298 250.528C253.784 249.938 255.172 250.501 255.463 251.869C255.592 252.377 255.559 252.913 255.559 253.423Z" fill="#010101"/>
<path id="Vector_40" d="M103.7 253.423C103.7 253.718 103.7 254.013 103.7 254.308C103.732 254.764 103.764 255.112 102.925 255.112C102.086 255.112 102.021 254.817 102.053 254.281C102.086 253.638 102.053 252.994 102.053 252.351C102.053 251.788 101.827 251.305 101.085 251.305C100.342 251.305 99.9544 251.734 99.9221 252.351C99.8899 253.075 99.8576 253.826 99.9221 254.549C99.9544 255.085 99.6639 255.112 99.1797 255.085C98.7278 255.059 98.2758 255.166 98.3081 254.549C98.3727 253.37 98.3081 252.217 98.3404 251.037C98.3404 250.796 98.1467 250.421 98.5664 250.367C98.986 250.287 99.6645 250.153 99.8259 250.447C100.084 250.903 100.246 250.608 100.471 250.528C101.957 249.938 103.345 250.501 103.636 251.869C103.732 252.377 103.7 252.913 103.7 253.423Z" fill="#010101"/>
<path id="Vector_41" d="M124.398 193.955C124.979 194.33 124.914 194.544 124.204 194.652C121.395 194.357 118.553 194.035 115.486 193.713C118.683 191.434 121.718 189.316 124.753 187.171C124.785 187.52 124.882 187.895 124.592 188.217C124.108 189.236 122.88 189.692 122.009 190.388C120.878 191.3 119.619 192.131 118.295 193.043C119.845 193.177 121.299 193.365 122.751 193.499C123.332 193.553 123.945 193.526 124.398 193.955Z" fill="#242121"/>
<path id="Vector_42" d="M179.645 253.181C179.645 253.557 179.645 253.932 179.645 254.335C179.645 254.79 179.742 255.139 178.871 255.139C177.967 255.139 178.031 254.79 178.064 254.28C178.096 253.557 178.096 252.806 178.064 252.082C178.064 251.76 178.257 251.412 177.58 251.304C177.224 251.251 177.354 250.581 177.45 250.554C178.29 250.393 177.999 249.723 178.257 249.32C178.774 248.462 180.195 248.14 181.164 248.677C181.487 248.865 181.551 249.025 181.325 249.32C181.132 249.562 181.099 249.856 180.615 249.588C180.131 249.347 179.776 249.508 179.679 249.937C179.55 250.526 180.131 250.312 180.454 250.312C180.809 250.339 181.099 250.339 181.035 250.741C181.002 250.955 181.196 251.384 180.68 251.304C179.388 251.116 179.646 251.84 179.646 252.43C179.646 252.699 179.645 252.94 179.645 253.181Z" fill="#010101"/>
<path id="Vector_43" d="M279.744 250.313C280.164 250.286 280.681 250.34 281.101 250.554C281.359 250.661 281.908 250.688 281.585 251.144C281.391 251.439 281.262 251.841 280.681 251.519C280.584 251.466 280.423 251.439 280.294 251.412C279.842 251.331 279.195 251.197 279.034 251.573C278.84 252.082 279.551 252.082 279.938 252.189C281.617 252.698 282.069 253.128 281.811 254.012C281.553 254.924 280.358 255.38 278.872 255.139C278.452 255.058 278.065 254.924 277.677 254.79C277.387 254.683 276.999 254.549 277.354 254.147C277.613 253.879 277.742 253.557 278.226 253.906C278.29 253.932 278.355 253.959 278.42 253.986C279.033 254.147 279.937 254.576 280.228 253.986C280.518 253.37 279.453 253.396 278.936 253.181C278.097 252.86 277.289 252.538 277.483 251.6C277.678 250.769 278.518 250.313 279.744 250.313Z" fill="#010101"/>
<path id="Vector_44" d="M138.605 255.166C137.249 255.166 136.119 254.496 135.732 253.45C135.344 252.404 135.764 251.386 136.83 250.742C137.831 250.125 139.477 250.152 140.511 250.769C140.834 250.956 141.06 251.144 140.672 251.439C140.414 251.653 140.349 252.136 139.736 251.734C139.155 251.332 138.444 251.278 137.766 251.68C137.25 251.975 137.089 252.404 137.185 252.913C137.347 253.906 138.574 254.361 139.575 253.718C140.285 253.262 140.479 253.664 140.77 253.959C141.222 254.442 140.576 254.549 140.285 254.737C139.832 255.059 139.218 255.139 138.605 255.166Z" fill="#010101"/>
<path id="Vector_45" d="M208.319 250.313C208.836 250.286 209.385 250.367 209.869 250.635C210.128 250.795 210.838 250.822 210.45 251.358C210.192 251.707 209.998 252.109 209.288 251.68C208.61 251.251 207.77 251.332 207.189 251.921C206.672 252.457 206.672 253.101 207.253 253.61C207.899 254.173 208.707 254.2 209.417 253.664C209.966 253.235 210.095 253.718 210.386 253.905C210.773 254.173 210.644 254.361 210.289 254.602C209.321 255.299 207.771 255.38 206.64 254.816C205.51 254.227 205.026 253.127 205.413 252.055C205.768 250.983 206.866 250.313 208.319 250.313Z" fill="#010101"/>
<path id="Vector_46" d="M82.4849 248.946C83.0983 248.811 83.3242 249.026 83.2597 249.535C83.1628 250.071 83.2597 250.474 84.099 250.339C84.4863 250.286 84.68 250.393 84.6477 250.768C84.6477 251.09 84.6477 251.358 84.099 251.304C83.3888 251.197 83.1628 251.492 83.2274 252.055C83.292 252.43 83.2274 252.805 83.2274 253.208C83.2274 253.797 83.4211 254.254 84.2932 253.905C84.8097 253.69 84.7451 254.092 84.9066 254.253C85.1648 254.521 85.1002 254.709 84.7452 254.896C84.0995 255.218 83.4211 255.272 82.7109 255.03C82.0653 254.789 81.6774 254.334 81.6451 253.717C81.6128 253.207 81.6774 252.724 81.6128 252.215C81.5805 251.867 81.9033 251.411 81.0963 251.25C80.8058 251.196 80.8058 250.499 81.0963 250.446C81.8388 250.338 81.6451 249.936 81.6128 249.614C81.5488 248.999 81.8393 248.811 82.4849 248.946Z" fill="black"/>
<path id="Vector_47" d="M155.105 248.946C155.847 248.785 155.944 249.133 155.88 249.616C155.783 250.179 156.009 250.447 156.719 250.339C157.106 250.286 157.3 250.393 157.268 250.768C157.235 251.09 157.268 251.385 156.719 251.304C155.88 251.197 155.783 251.599 155.847 252.136C155.88 252.484 155.847 252.833 155.847 253.181C155.847 253.771 156.009 254.227 156.913 253.878C157.43 253.691 157.365 254.039 157.527 254.227C157.753 254.495 157.72 254.682 157.365 254.87C156.72 255.219 156.041 255.272 155.331 255.004C154.685 254.763 154.297 254.307 154.265 253.69C154.233 253.154 154.265 252.644 154.265 252.108C154.233 251.76 154.491 251.358 153.749 251.223C153.458 251.17 153.458 250.473 153.716 250.419C154.459 250.312 154.297 249.91 154.233 249.588C154.201 249.026 154.427 248.812 155.105 248.946Z" fill="black"/>
<path id="Vector_48" d="M196.146 251.841C196.146 252.753 196.113 253.664 196.178 254.576C196.21 255.112 195.92 255.139 195.435 255.112C194.983 255.085 194.564 255.193 194.564 254.576C194.628 252.753 194.628 250.93 194.564 249.134C194.531 248.517 194.983 248.598 195.435 248.598C195.92 248.571 196.21 248.598 196.178 249.134C196.081 250.018 196.146 250.929 196.146 251.841Z" fill="black"/>
<path id="Vector_49" d="M113.193 251.788C113.193 250.876 113.225 249.965 113.193 249.053C113.161 248.49 113.548 248.543 114 248.543C114.387 248.543 114.839 248.436 114.807 249.026C114.775 250.876 114.775 252.726 114.807 254.576C114.807 255.139 114.452 255.085 114.032 255.085C113.645 255.085 113.193 255.192 113.225 254.603C113.257 253.664 113.193 252.726 113.193 251.788Z" fill="black"/>
<path id="Vector_50" d="M273.125 250.313C273.674 250.367 274.094 250.206 274.094 250.715C274.094 250.903 274.255 250.822 274.385 250.742C274.514 250.688 274.611 250.608 274.74 250.554C275.03 250.447 275.353 250.206 275.611 250.367C275.966 250.554 275.773 250.956 275.805 251.252C275.837 251.627 275.45 251.52 275.192 251.546C274.417 251.68 274.19 252.163 274.126 252.699C274.061 253.262 274.061 253.826 274.094 254.362C274.094 254.817 274.126 255.112 273.351 255.112C272.641 255.085 272.447 254.951 272.479 254.362C272.544 253.236 272.544 252.137 272.479 251.01C272.447 250.474 272.641 250.206 273.125 250.313Z" fill="black"/>
<path id="Vector_51" d="M144.32 252.726C144.32 253.289 144.288 253.852 144.32 254.388C144.353 254.844 144.353 255.139 143.578 255.139C142.868 255.112 142.706 254.978 142.706 254.415C142.771 253.235 142.771 252.083 142.706 250.903C142.674 250.286 143.126 250.367 143.578 250.367C144.062 250.34 144.385 250.367 144.32 250.903C144.256 251.492 144.32 252.109 144.32 252.726Z" fill="black"/>
<path id="Vector_52" d="M88.4586 252.806C88.4586 253.342 88.4263 253.852 88.4586 254.388C88.4908 254.817 88.4908 255.139 87.7161 255.139C87.0382 255.112 86.8123 254.978 86.8445 254.415C86.9091 253.235 86.9091 252.083 86.8445 250.903C86.8123 250.286 87.2319 250.367 87.7161 250.367C88.168 250.367 88.5231 250.367 88.4586 250.903C88.394 251.492 88.4586 252.163 88.4586 252.806Z" fill="black"/>
<path id="Vector_53" d="M247.971 252.806C247.971 253.342 247.939 253.852 247.971 254.388C248.003 254.844 248.003 255.139 247.229 255.139C246.551 255.112 246.325 254.978 246.357 254.415C246.422 253.235 246.422 252.083 246.357 250.903C246.325 250.286 246.744 250.367 247.229 250.367C247.713 250.367 248.036 250.367 247.971 250.903C247.907 251.519 247.971 252.163 247.971 252.806Z" fill="black"/>
<path id="Vector_54" d="M124.365 197.387C123.784 198.808 120.652 200.416 119.005 200.148C120.781 199.21 122.589 198.298 124.365 197.387Z" fill="#282525"/>
<path id="Vector_55" d="M166.955 179.53C167.989 178.94 169.022 178.323 170.088 177.734C170.604 177.573 171.121 177.68 171.67 177.734C170.152 178.431 169.087 179.905 166.955 179.53Z" fill="#2B2827"/>
<path id="Vector_56" d="M87.6517 248.409C88.265 248.463 88.6201 248.758 88.5878 249.214C88.5878 249.67 88.2327 249.991 87.6517 249.965C87.0706 249.938 86.7478 249.67 86.7478 249.187C86.7472 248.677 87.1352 248.463 87.6517 248.409Z" fill="#0A0A0A"/>
<path id="Vector_57" d="M248.133 249.187C248.068 249.616 247.81 249.964 247.229 249.964C246.648 249.991 246.292 249.696 246.26 249.24C246.227 248.758 246.55 248.463 247.131 248.436C247.713 248.409 248.003 248.704 248.133 249.187Z" fill="#0A0A0A"/>
<path id="Vector_58" d="M143.416 248.409C144.062 248.436 144.45 248.704 144.482 249.16C144.514 249.616 144.191 249.937 143.61 249.964C143.029 249.991 142.707 249.696 142.642 249.24C142.577 248.731 142.964 248.517 143.416 248.409Z" fill="#0A0A0A"/>
<path id="Vector_59" d="M176.384 152.343C175.932 152.611 175.513 152.879 175.06 153.147C174.77 153.04 174.544 152.879 174.35 152.665C174.964 152.048 175.674 152.236 176.384 152.343Z" fill="#2E2B29"/>
<path id="Vector_60" d="M118.133 133.468C112.547 130.358 106.96 127.248 101.407 124.137C97.9191 122.18 94.4316 120.223 90.9448 118.265C90.6865 118.131 90.4283 117.971 90.2346 117.649C93.3992 117.971 96.531 118.292 99.6956 118.614C99.7279 118.561 99.7602 118.507 99.7925 118.48C89.0397 111.617 78.2874 104.753 67.5345 97.8889C67.5668 97.8353 67.5991 97.7817 67.6314 97.7281C82.0325 103.922 96.4342 110.088 110.868 116.282C110.835 116.335 110.835 116.389 110.803 116.416C108.64 116.255 106.476 116.094 104.313 115.933C103.926 115.906 103.474 115.692 103.247 116.201C102.989 116.737 103.57 116.791 103.86 116.952C110.028 120.383 116.227 123.788 122.395 127.22C122.782 127.435 123.105 127.676 123.493 127.917C121.136 128.105 118.811 127.998 116.453 127.971C115.517 127.971 115.323 128.185 115.258 128.936C115.161 130.116 115.581 131.001 116.615 131.805C117.165 132.342 117.81 132.797 118.133 133.468Z" fill="#FEF100"/>
<path id="Vector_61" d="M129.887 203.634C122.331 207.2 114.807 210.792 107.251 214.359C106.864 214.546 106.476 214.734 105.798 215.056C108.639 215.19 111.19 215.324 114.032 215.458C101.568 221.007 89.3942 226.424 77.221 231.84C77.1888 231.786 77.1242 231.759 77.0919 231.705C84.9384 226.156 92.7848 220.605 100.76 214.948C98.6293 214.573 96.6273 214.251 94.3671 213.849C102.31 209.72 110.028 205.698 117.745 201.676C117.939 201.81 117.906 201.998 117.906 202.159C117.971 203.58 117.971 203.58 119.747 203.58C123.138 203.58 126.529 203.607 129.887 203.634Z" fill="#FEF100"/>
<path id="Vector_62" d="M137.087 178.19C137.12 171.647 137.152 165.105 137.184 158.563C137.184 157.25 137.184 155.936 137.184 154.676C137.507 154.542 137.636 154.649 137.765 154.756C143.158 158.349 148.583 161.942 153.975 165.535C154.104 165.615 154.201 165.749 154.33 165.856C154.265 166.393 153.684 166.607 153.264 166.902C149.292 169.744 145.385 172.587 141.413 175.401C140.251 176.233 139.153 177.064 137.958 177.868C137.733 178.029 137.507 178.324 137.087 178.19Z" fill="#FEFEFE"/>
<path id="Vector_63" d="M124.591 144.38C121.588 142.718 118.585 141.029 115.324 139.232C118.295 139.42 120.91 139.607 123.558 139.795C124.656 139.795 124.914 140.251 124.785 141.109C124.623 142.182 124.979 143.308 124.591 144.38Z" fill="#FEF101"/>
<path id="Vector_64" d="M124.398 193.955C122.234 193.714 120.071 193.472 117.714 193.204C120.103 191.488 122.331 189.853 124.592 188.244C124.979 188.995 124.721 189.799 124.753 190.55C124.818 191.462 124.786 192.346 124.753 193.258C124.753 193.499 124.947 193.848 124.398 193.955Z" fill="#FEF101"/>
<path id="Vector_65" d="M137.087 178.189C142.835 174.06 148.583 169.958 154.33 165.829C154.588 165.963 154.879 166.07 154.976 166.338C149.067 170.602 143.158 174.838 137.249 179.101C136.958 178.833 137.12 178.511 137.087 178.189Z" fill="#252121"/>
<path id="Vector_66" d="M211.677 127.944C218.102 124.539 224.529 121.108 230.954 117.703C233.279 116.469 235.604 115.236 237.929 114.003C238.187 113.869 238.607 113.815 238.445 113.359C238.252 112.877 237.864 113.038 237.509 113.091C235.862 113.279 234.216 113.493 232.504 113.547C245.743 107.648 259.014 101.723 272.253 95.8246C272.285 95.8782 272.35 95.9318 272.382 95.9854C262.856 102.474 253.363 108.962 243.579 115.638C246.162 115.531 248.455 115.424 250.748 115.317C250.812 115.37 250.845 115.424 250.909 115.451C241.384 122.287 231.858 129.124 222.106 136.096C224.786 136.096 227.241 136.096 229.662 136.096C229.695 136.176 229.727 136.23 229.791 136.31C226.982 138.348 224.205 140.358 221.396 142.396C221.138 142.128 221.267 141.834 221.267 141.538C221.267 138.964 221.299 136.364 221.235 133.79C221.202 132.342 221.945 131.404 223.463 130.76C224.561 130.304 225.723 129.983 226.918 129.956C228.21 129.902 227.628 129.178 227.725 128.695C227.854 127.999 227.273 128.052 226.724 128.052C222.074 128.052 217.456 128.052 212.807 128.052C212.452 128.052 212.033 128.159 211.677 127.944Z" fill="#FEF100"/>
<path id="Vector_67" d="M221.816 193.312C233.247 200.041 244.678 206.771 256.367 213.662C253.041 213.662 250.038 213.662 246.712 213.662C257.626 220.472 268.282 227.148 278.937 233.824C278.905 233.878 278.873 233.904 278.84 233.958C263.018 227.496 247.196 221.035 231.374 214.573C231.374 214.519 231.407 214.493 231.407 214.439C234.83 214.439 238.252 214.439 241.675 214.439C241.707 214.385 241.739 214.305 241.772 214.251C234.119 210.31 226.466 206.342 218.813 202.401C219.168 202.186 219.556 202.294 219.944 202.267C223.302 202.267 226.66 202.24 230.018 202.267C230.825 202.267 230.954 202.052 231.019 201.435C231.116 200.39 230.696 199.8 229.63 199.264C227.112 197.977 224.657 196.583 222.171 195.216C221.88 195.055 221.525 194.974 221.364 194.653C221.203 194.224 221.332 193.794 221.267 193.366C221.429 193.016 221.622 193.177 221.816 193.312Z" fill="#FEF100"/>
<path id="Vector_68" d="M208.125 153.094C208.383 153.308 208.286 153.603 208.286 153.845C208.319 157.598 208.319 161.352 208.351 165.105C208.383 167.76 208.416 170.387 208.416 173.015C208.416 173.417 208.706 174.007 208.222 174.222C207.609 174.49 206.995 174.195 206.414 173.82C203.701 171.996 200.924 170.2 198.212 168.404C196.242 167.117 194.305 165.803 192.335 164.489C193.239 163.363 194.595 162.639 195.758 161.781C198.987 159.422 202.216 157.036 205.51 154.73C206.317 154.139 206.931 153.308 208.125 153.094Z" fill="#FEFEFE"/>
<path id="Vector_69" d="M221.396 193.231C221.396 193.687 221.396 194.17 221.396 194.625C221.138 193.472 221.299 192.293 221.267 191.14C221.235 189.773 221.235 188.378 221.267 187.011C221.267 186.743 221.073 186.394 221.558 186.26C225.11 188.566 228.629 190.872 232.084 193.124C229.566 193.124 226.95 193.124 224.334 193.124C223.366 193.123 222.365 192.989 221.396 193.231Z" fill="#FEF100"/>
<path id="Vector_70" d="M208.125 153.094C203.055 156.794 197.986 160.467 192.916 164.167C192.723 164.301 192.529 164.409 192.335 164.516C192.109 164.355 191.916 164.221 191.69 164.06C197.211 160.065 202.701 156.07 208.222 152.076C208.287 152.423 208.287 152.746 208.125 153.094Z" fill="#252121"/>
<path id="Vector_71" d="M174.35 173.256C173.187 173.256 172.025 173.229 170.862 173.256C170.314 173.256 170.023 173.176 170.023 172.64C170.055 170.656 170.055 168.645 170.023 166.661C170.023 166.178 170.185 165.964 170.798 165.99C173.219 166.071 175.674 166.124 178.096 166.232C178.999 166.285 179.549 166.821 179.936 167.438C180.775 168.725 181.034 170.093 180.549 171.514C180.162 172.64 179.161 173.257 177.74 173.257C176.61 173.283 175.48 173.256 174.35 173.256Z" fill="#2EB357"/>
<path id="Vector_72" d="M170.023 160.36C170.023 159.556 170.055 158.778 170.023 157.974C170.023 157.572 170.185 157.411 170.701 157.411C172.316 157.411 173.962 157.384 175.577 157.598C177.256 157.786 178.256 159.1 178.16 160.762C178.063 162.237 176.932 163.31 175.221 163.39C173.703 163.444 172.185 163.417 170.668 163.444C170.087 163.47 170.023 163.202 170.055 162.854C170.023 161.995 170.023 161.191 170.023 160.36Z" fill="#2EB357"/>
<path id="Vector_73" d="M160.659 61.4516C160.659 62.5511 160.659 63.6768 160.659 64.7763C160.659 65.0443 160.497 65.4464 161.046 65.4464C161.498 65.4464 162.08 65.6876 162.403 65.2051C163.436 63.65 165.018 62.497 166.632 61.398C171.379 58.127 174.188 53.9442 175.642 49.0109C176.061 49.2521 176.19 49.6542 176.449 49.9763C180.065 54.7756 183.908 59.4677 187.169 64.4546C190.14 69.0127 192.562 73.7852 193.659 78.9061C194.434 82.4452 194.143 85.8234 191.238 88.7459C189.462 90.5423 187.169 91.7489 184.554 92.4726C184.328 92.5262 184.07 92.7139 183.876 92.4994C183.715 92.3118 183.908 92.1242 184.005 91.9365C185.2 89.148 186.427 86.3599 187.137 83.4374C187.848 80.488 187.88 77.5386 186.976 74.6166C186.911 74.4557 186.847 74.2949 186.621 73.812C183.392 78.9597 178.581 82.8209 174.319 87.1104C173.447 86.3063 172.833 85.3409 172.349 84.3487C171.154 81.9359 170.896 79.335 170.444 76.7877C170.218 75.5274 169.96 74.294 169.637 73.061C169.475 72.4713 169.153 72.4713 168.571 72.5517C168.022 72.6321 167.603 72.6857 167.764 73.3563C168.184 74.965 167.506 76.3057 166.117 77.4319C165.278 78.102 164.47 78.7994 163.631 79.4963C161.145 81.507 160.628 84.0007 161.145 86.7352C161.209 87.03 161.338 87.2981 161.177 87.7006C160.079 87.0305 159.336 86.2259 158.949 85.1801C158.562 84.1343 158.981 83.0889 158.82 81.8823C157.625 83.1425 156.431 84.2415 156.205 85.8234C155.979 87.2981 156.495 88.7191 156.753 90.3814C152.459 86.8424 148.972 83.1425 148.423 78.1551C148.197 76.0104 149.262 74.0795 150.618 72.2832C152.62 69.6555 155.236 67.4571 157.561 65.0443C158.721 63.9721 159.852 62.8727 160.659 61.4516Z" fill="#EC1B2D"/>
<path id="Vector_74" d="M221.396 193.231C222.365 192.775 223.366 193.097 224.334 193.124C223.495 193.312 222.623 192.909 221.784 193.285C221.655 193.285 221.525 193.258 221.396 193.231Z" fill="#2EB357"/>
<path id="Vector_75" d="M203.379 233.958C203.379 236.746 200.828 238.972 197.696 238.945C194.466 238.918 191.98 236.666 191.98 233.851C192.012 231.089 194.595 228.891 197.76 228.917C200.957 228.971 203.411 231.143 203.379 233.958Z" fill="#FEFEFE"/>
<path id="Vector_76" d="M189.236 253.986C188.461 254.12 188.267 253.852 188.267 253.236C188.267 252.646 188.461 252.351 189.204 252.485C189.849 252.592 190.883 252.324 190.85 253.262C190.818 254.147 189.752 253.745 189.236 253.986Z" fill="#F5F5F5"/>
<path id="Vector_77" d="M188.913 250.099C189.72 250.125 190.431 250.045 190.431 250.742C190.431 251.573 189.591 251.332 189.01 251.412C188.235 251.519 188.332 251.117 188.267 250.688C188.202 250.045 188.622 250.072 188.913 250.099Z" fill="#FCFCFC"/>
<path id="Vector_78" d="M242.514 252.672C242.482 253.369 241.933 253.879 241.158 253.879C240.318 253.879 239.801 253.37 239.834 252.565C239.866 251.868 240.447 251.385 241.222 251.412C241.998 251.412 242.546 251.975 242.514 252.672Z" fill="#FCFCFC"/>
<path id="Vector_79" d="M267.797 252.297C267.474 252.056 266.731 252.592 266.731 251.975C266.731 251.52 267.409 251.359 267.958 251.359C268.443 251.359 269.024 251.573 268.96 251.949C268.863 252.565 268.152 252.056 267.797 252.297Z" fill="#EAEAEA"/>
<path id="Vector_80" d="M260.241 252.297C259.951 252.083 259.24 252.538 259.272 251.975C259.304 251.52 259.95 251.359 260.499 251.359C260.984 251.359 261.565 251.573 261.5 251.949C261.404 252.592 260.661 252.056 260.241 252.297Z" fill="#EAEAEA"/>
<path id="Vector_81" d="M149.357 252.297C148.97 252.109 148.259 252.511 148.195 252.029C148.13 251.546 148.808 251.386 149.357 251.359C149.906 251.332 150.488 251.52 150.423 251.975C150.391 252.565 149.681 252.083 149.357 252.297Z" fill="#EAEAEA"/>
<path id="Vector_82" d="M76.7374 253.021C77.0925 253.101 77.609 252.913 77.5444 253.396C77.4799 253.878 77.0279 254.066 76.5109 254.066C76.059 254.066 75.607 254.039 75.6716 253.53C75.7367 252.94 76.3823 253.128 76.7374 253.021Z" fill="#E8E8E8"/>
<path id="Vector_83" d="M200.763 253.021C201.118 253.101 201.635 252.887 201.603 253.369C201.57 253.905 201.086 254.093 200.505 254.093C200.117 254.093 199.698 254.039 199.698 253.584C199.73 252.94 200.376 253.128 200.763 253.021Z" fill="#E8E8E8"/>
<path id="Vector_84" d="M108.446 253.021C108.769 253.074 109.285 252.887 109.221 253.369C109.156 253.852 108.704 254.039 108.187 254.039C107.735 254.039 107.283 253.986 107.348 253.503C107.413 252.94 108.026 253.101 108.446 253.021Z" fill="#E8E8E8"/>
<path id="Vector_85" d="M93.367 254.04C92.5922 254.04 91.9783 253.477 91.9461 252.753C91.9138 252.002 92.5917 251.385 93.3992 251.412C94.2068 251.439 94.8524 252.028 94.8202 252.806C94.7873 253.504 94.174 254.04 93.367 254.04Z" fill="#FBFBFB"/>
<path id="Vector_86" d="M174.253 252.753C174.253 253.476 173.64 254.013 172.832 254.04C171.993 254.04 171.379 253.45 171.379 252.699C171.411 251.975 172.025 251.412 172.8 251.412C173.64 251.385 174.253 252.002 174.253 252.753Z" fill="#FBFBFB"/>
<path id="Vector_87" d="M130.759 251.385C131.566 251.385 132.212 252.002 132.179 252.753C132.147 253.476 131.534 254.013 130.759 254.013C129.919 254.013 129.305 253.423 129.338 252.645C129.37 251.949 129.984 251.385 130.759 251.385Z" fill="#FBFBFB"/>
<path id="Vector_88" d="M195.048 233.985C195.048 233.1 195.08 232.215 195.048 231.33C195.016 230.821 195.209 230.58 195.855 230.58C196.953 230.58 198.051 230.446 199.116 230.714C199.923 230.928 200.473 231.33 200.602 232.054C200.731 232.751 200.537 233.368 199.795 233.743C199.278 233.985 199.408 234.065 199.763 234.387C200.667 235.165 200.408 236.264 200.796 237.202C200.893 237.39 200.473 237.363 200.312 237.363C199.957 237.363 199.505 237.497 199.375 237.015C199.246 236.559 199.117 236.103 198.988 235.647C198.762 234.789 197.761 234.306 196.76 234.467C196.308 234.548 196.437 234.789 196.437 235.003C196.405 235.62 196.405 236.237 196.437 236.853C196.469 237.228 196.308 237.389 195.856 237.362C195.436 237.336 195.114 237.362 195.114 236.88C195.048 235.915 195.048 234.95 195.048 233.985Z" fill="#242021"/>
<path id="Vector_89" d="M196.339 232.242C196.307 231.894 196.145 231.303 197.243 231.357C198.406 231.411 199.18 231.813 199.213 232.483C199.245 233.234 198.438 233.663 197.017 233.663C196.339 233.663 196.339 233.663 196.339 232.242Z" fill="#FEFEFE"/>
</g>
</g>
</svg>
